<?xml version="1.0" encoding="utf-8"?>
<!-- Generator: Adobe Illustrator 25.3.1, SVG Export Plug-In . SVG Version: 6.00 Build 0)  -->
<svg version="1.1" id="Layer_1" xmlns="http://www.w3.org/2000/svg" xmlns:xlink="http://www.w3.org/1999/xlink" x="0px" y="0px"
	 viewBox="0 0 584 768" style="enable-background:new 0 0 584 768;" xml:space="preserve">
<style type="text/css">
	.st0{fill:#FFFFFF;}
</style>
<path class="st0" d="M542.99,19.32c-2.17,0.1-4.34,0.21-6.51,0.32c-0.65,0.03-1.31,0.06-1.96,0.1c0,0,0.15,3.01,0.15,3.2
	c0.07,1.36-0.18,2.94,0.92,3.91c0.2,0.17,0.31,0.26,0.47,0.45c0.15,0.18,0.26,0.5,0.46,0.68c0.33,0.28,0.81,0.36,1.13,0.6
	c0.52,0.39,0.16,0.59,0.1,1.12c-0.05,0.43,0.18,0.74,0.35,1.1c0.15,0.3,0.23,0.63,0.39,0.96c0.24,0.53,0.47,1.04,0.61,1.63
	c0.1,0.41-0.15,0.74-0.19,1.14c-0.04,0.42,0.01,0.8-0.09,1.24c-0.2,0.83-0.57,1.62-1.08,2.3c-1.06,1.39-2.68,2.25-4.4,2.34
	c-3.28,0.16-6.07-2.44-6.24-5.81c-0.04-0.93,0.28-1.75,0.44-2.65c0.06-0.31,0.14-0.6,0.21-0.92c0.07-0.29,0.27-0.67,0.39-0.96
	c0.16-0.41,0.4-0.59,0.71-0.88c0.39-0.36,0.37-0.95,0.55-1.45c0.24-0.66,0.44-0.23,0.91-0.46c0.49-0.24,0.38-1.63,0.35-2.05
	c-0.06-1.1-0.22-2.19-0.3-3.29c-0.05-0.66,0.07-1.32,0.04-2c-0.57,0.03-1.14,0.06-1.71,0.08c-2.48,0.12-4.95,0.24-7.43,0.36
	c-0.27,0.01-4.61,0.22-4.61,0.22c0,0.08,0.48,9.84,0.48,9.84c1.34,1.06,2.25,2.67,2.34,4.53c0.16,3.37-2.36,6.23-5.65,6.39
	c-3.28,0.16-6.07-2.44-6.24-5.81c-0.04-0.9,0.11-1.81,0.45-2.65c0.35-0.85,0.99-1.41,1.42-2.18c0.32-0.58,0.23-1.43,0.94-1.74
	c0.43-0.19,0.61,0.03,0.88-0.46c0.16-0.29,0.46-0.78,0.55-1.1c0.15-0.5,0.1-0.88,0.32-1.37c0.21-0.49,0.27-0.68,0.34-1.2
	c0.07-0.5,0.37-0.76,0.41-1.25c0.04-0.59-0.38-1.14-0.39-1.73c-0.01-0.5,0.3-0.9-0.25-1.06c-0.31-0.09-0.8,0.04-1.12,0.05
	c-1.37,0.07-2.73,0.13-4.1,0.2c-3.22,0.16-6.43,0.31-9.65,0.47c-0.76,0.04-1.52,0.07-2.27,0.11c-0.21,0.01,0.58,2.68,0.61,2.88
	c0.13,0.88-0.1,1.68-0.13,2.53c-0.02,0.42,0,0.98,0.07,1.39c0.09,0.52,0.16,0.39,0.61,0.69c0.47,0.31,0.4,0.48,0.6,0.89
	c0.07,0.14,0.32,0.33,0.34,0.46c0.05,0.22-0.12,0.38-0.01,0.57c0.09,0.17,0.29,0.1,0.4,0.28c0.26,0.44-0.05,0.96,0.38,1.41
	c0.27,0.28,0.59,0.27,0.9,0.43c0.87,0.44,1.03,1.87,1.08,2.75c0.16,3.37-2.37,6.23-5.65,6.39c-3.28,0.16-6.07-2.44-6.24-5.81
	c-0.07-1.38,0.33-2.75,1.12-3.87c0.4-0.57,0.95-0.92,1.4-1.42c0.48-0.53,0.38-1.36,0.57-2.03c0.41-1.43,0.03-2.92-0.04-4.39
	c-0.01-0.17-0.14-2.94-0.14-2.94c-3.84,0.18-7.69,0.37-11.53,0.56c-0.57,0.03-1.23-0.06-1.71,0.3c-0.45,0.35-1.25,0.76-1.49,1.29
	c-0.42,0.94-0.23,1.88-0.18,2.88c0.02,0.48,0.15,3.93,0.74,3.64c0.15,0.03,0.3,0.09,0.44,0.16c-0.16,0.43,0.2,0.37,0.42,0.57
	c0.24,0.22,0.37,0.49,0.45,0.82c0.1,0.41,0.06,1.04,0.67,0.95c0.06,0.05,0.18,0.33,0.23,0.37c-0.03,0.14,0.03,0.25,0.18,0.33
	c0.2,0.06,0.39,0.15,0.57,0.26c-0.07,0.36,0.22,0.29,0.33,0.53c0,0,0,0,0,0c0.13,0.29,0.09,0.74,0.16,1.06
	c0.1,0.43,0.17,0.85,0.2,1.28c0.16,3.37-2.36,6.23-5.65,6.39c-3.28,0.16-6.07-2.44-6.24-5.81c-0.13-2.61,1.38-4.9,3.59-5.88
	c0.2-0.09-0.19-1.27-0.25-1.38c0,0,0,0,0,0c-0.14-0.24-0.09-0.5-0.03-0.77c0.09-0.47,0.15-0.72,0.12-1.23
	c-0.02-0.38-0.07-0.76,0-1.13c0.05-0.28,0.26-0.34,0.1-0.71c-0.17-0.38-0.32-0.41-0.37-0.86c-0.04-0.37-0.2-0.56-0.31-0.86
	c-0.32-0.94-0.97-1.98-2.05-1.83c-1.57,0.22-3.16,0.26-4.75,0.34c-1.19,0.06-2.37,0.11-3.56,0.17c-0.54,0.03-1.08,0.06-1.62,0.08
	c-0.49,0.01-1.19-0.15-1.63,0.11c-0.22,0.13-0.31,0.48-0.52,0.63c-0.39,0.28-0.91,0.23-1.26,0.58c-0.19,0.19-0.57,0.72-0.65,0.96
	c-0.19,0.57,0.03,1.44,0.06,2.04c0.04,0.88,0.14,1.65,0.39,2.5c0.28,0.93,1.18,1.53,1.94,2.06c0.45,0.31,0.62,0.68,0.95,1.08
	c0.36,0.43,0.8,0.75,1.13,1.22c0.66,0.95,1.05,2.08,1.1,3.24c0.16,3.37-2.37,6.22-5.65,6.38c-3.28,0.16-6.07-2.44-6.24-5.81
	c-0.07-1.45,0.38-2.89,1.26-4.03c0.36-0.47,0.78-0.95,1.2-1.37c0.56-0.56,0.9-0.66,0.88-1.51c-0.02-1.04-0.23-2.12-0.13-3.15
	c0.06-0.6,0.33-1.09,0.05-1.69c-0.31-0.64-0.8-0.87-1.35-1.2c-0.51-0.31-0.89-0.87-1.4-1.15c-0.94-0.51-1.85-0.35-2.95-0.29
	c-3.08,0.15-6.17,0.3-9.25,0.45c0.01,0.3,0.03,0.61,0.04,0.92c0.07,1.39,0.13,2.78,0.2,4.17c0.04,0.71-0.01,1.49,0.15,2.19
	c0.15,0.65,0.22,1.54,0.64,2.06c0.57,0.71,1.46,1.05,1.99,1.79c0.65,0.92,1.01,2.05,1.06,3.18c0.16,3.37-2.36,6.23-5.65,6.38
	s-6.07-2.44-6.24-5.81c-0.07-1.46,0.45-2.51,1.06-3.76c0.22-0.45,0.28-0.84,0.68-1.19c0.34-0.3,0.74-0.49,1.12-0.73
	c0.46-0.29,0.69-0.49,0.75-1.12c0.1-1.14-0.28-2.28-0.08-3.42c0.15-0.9,0.46-1.78,0.48-2.7c0.01-0.44,0.12-1.48-0.33-1.72
	c-0.51-0.26-1.78,0.05-2.32,0.08c-0.97,0.05-1.94,0.09-2.91,0.14c-0.99,0.05-1.99,0.13-2.98,0.15c-0.29,0-0.59-0.06-0.88-0.02
	c-0.35,0.05-0.74,0.39-1.09,0.33c-0.53-0.11-0.65,0.37-1.04,0.71c-0.4,0.34-0.77,0.54-1.07,0.98c-0.28,0.41-0.29,0.84-0.41,1.29
	c-0.16,0.6-0.43,1.1-0.52,1.72c-0.15,1.06-0.28,2.22-0.1,3.28c0.14,0.81,0.62,1.51,0.79,2.32c0.11,0.53,0.08,1.06,0.13,1.6
	c0.07,0.84,0.32,1.52,0.63,2.3c0.33,0.82,0.21,1.67,0.25,2.53c0.03,0.63,0.14,1.19-0.13,1.77c-0.15,0.33-0.42,0.74-0.69,0.99
	c-0.55,0.5-1.04,0.39-1.72,0.61c-0.66,0.22-1.15,0.62-1.87,0.68c-0.48,0.04-0.93-0.01-1.41,0.11c-0.97,0.25-2.03,0.08-2.85-0.6
	c-0.79-0.64-1.23-1.56-1.85-2.35c-0.56-0.71-1.41-1.8-1.27-2.77c0.03-0.24,0.16-0.35,0.19-0.56c0.03-0.21-0.05-0.42-0.02-0.63
	c0.07-0.5,0.36-0.89,0.38-1.44c0.05-0.93,0.31-1.72,0.46-2.64c0.12-0.73,0.33-1.39,0.27-2.13c-0.09-1.1-0.69-1.83-1.07-2.82
	c-0.33-0.84-0.66-1.69-1.15-2.45c-0.42-0.65-0.95-1.22-1.61-1.61c-0.72-0.42-1.4-0.29-2.2-0.25c-2.06,0.1-4.11,0.2-6.17,0.3
	c-0.64,0.03-1.28,0.06-1.92,0.09c0.02,0.5,0.08,1,0.04,1.5c-0.04,0.46-0.21,0.9-0.2,1.36c0.02,0.68,0.37,1.32,0.56,1.95
	c0.23,0.76,0.36,1.55,0.68,2.28c0.16,0.37,0.53,1.29,0.87,1.61c0.38,0.35,0.87,0.4,1.2,0.82c0.32,0.4,0.64,0.81,0.95,1.22
	c0.78,1,1.23,2.23,1.29,3.51c0.16,3.37-2.36,6.23-5.65,6.38s-6.07-2.44-6.24-5.81c-0.05-1.07,0.18-2.15,0.66-3.11
	c0.24-0.48,0.31-0.68,0.36-1.19c0.06-0.52,0.36-0.95,0.45-1.46c0.14-0.71,0.29-1.65,0.29-2.37c0-0.35-0.1-0.72-0.07-1.07
	c0.05-0.59,0.22-1.05,0.19-1.68c-0.02-0.42,0-0.83,0.03-1.25c0.07-0.83-0.02-1.65-0.01-2.47c-0.67,0.03-1.33,0.06-2,0.1
	c-2.83,0.14-5.67,0.27-8.5,0.41c-1.17,0.06-2.35,0.11-3.52,0.17c-2.31,0.12-0.68,2.2-0.47,3.54c0.12,0.75-0.09,1.52,0.23,2.22
	c0.34,0.77,0.67,1.69,1.39,2.18c0.49,0.33,1.08,0.57,1.49,1.02c0.43,0.47,0.36,0.9,0.48,1.46c0.13,0.62,0.65,1.15,0.9,1.73
	c0.29,0.67,0.45,1.4,0.49,2.13c0.16,3.37-2.37,6.23-5.65,6.38s-6.07-2.44-6.24-5.81c-0.04-0.74,0.06-1.48,0.28-2.18
	c0.13-0.39,0.46-1.54,0.92-1.55c-0.27-0.46,0.31-1.13,0.44-1.58c0.2-0.74,0.43-1.47,0.64-2.21c0.21-0.75,0.33-1.57,0.31-2.36
	c-0.01-0.59-0.25-1.11-0.28-1.7c-0.06-1.01-0.09-2.02-0.15-3.04c0,0-4.6,0.22-4.89,0.24c-2.64,0.13-5.27,0.26-7.91,0.38
	c-0.62,0.03-1.24,0.06-1.86,0.09c0.05,1.03-0.05,1.89,0.15,2.92c0.25,1.3,0.58,2.62,1.34,3.73c0.2,0.29,0.52,0.53,0.68,0.82
	c0.11,0.2,0.01,0.47,0.06,0.68c0.05,0.21,0.19,0.36,0.24,0.56c0.07,0.27-0.06,0.69,0.08,0.93c0.17,0.3,0.61,0.47,0.84,0.73
	c0.37,0.41,0.33,0.85,0.46,1.37c0.21,0.8,0.83,1.38,0.99,2.19c0.41,2.05-0.75,4.33-2.32,5.54c-0.95,0.73-2.1,1.15-3.28,1.2
	c-3.28,0.16-6.07-2.44-6.24-5.81c-0.07-1.43,0.39-2.62,1.09-3.82c0.26-0.44,0.34-0.91,0.54-1.37c0.26-0.6,0.6-1.03,0.74-1.69
	c0.15-0.66,0.36-1.14,0.33-1.83c-0.01-0.31-0.09-0.66-0.06-0.97c0.08-0.91,0.16-1.69,0.11-2.62c-0.03-0.67,0.32-2.13-0.43-2.32
	c-0.35-0.09-0.89,0.05-1.26,0.06c-1.28,0.06-2.56,0.13-3.84,0.19c-2.81,0.14-5.62,0.27-8.43,0.41c-0.65,0.03-1.3,0.06-1.96,0.09
	c0.08,0-0.12,2.78-0.1,3c0.1,1.09,0.2,2.37,0.42,3.43c0.07,0.36,0.11,0.64,0.48,0.79c0.15,0.06,0.34-0.05,0.47,0
	c0.4,0.14,0.7,0.44,1.01,0.72c0.56,0.52,1.16,1.07,1.35,1.81c0.13,0.5-0.03,1.1,0.15,1.57c0.15,0.38,0.46,0.46,0.79,0.63
	c0.84,0.44,0.94,1.35,0.98,2.28c0.16,3.37-2.36,6.23-5.65,6.38c-1.73,0.08-3.45-0.63-4.63-1.93c-0.63-0.69-0.84-1.5-1.33-2.25
	c-0.21-0.32-0.51-0.43-0.59-0.84c-0.09-0.46,0.18-0.93,0.22-1.39c0.03-0.32-0.07-0.58-0.01-0.91c0.04-0.18,0.2-0.23,0.2-0.48
	c0.2-0.04,0.4-0.07,0.61-0.09c0.08-0.46,0.03-0.83,0.17-1.29c0.11-0.35,0.32-0.47,0.44-0.76c0.18-0.43-0.11-0.91,0.2-1.35
	c0.18-0.26,0.37-0.36,0.52-0.65c0.35-0.66,0.28-1.16,0.25-1.92c-0.05-1-0.16-1.93-0.32-2.91c-0.12-0.78-0.25-1.32,0.08-2.04
	c0.07-0.16,0.32-1.61,0.15-1.6c-0.09,0.01-13.67,0.66-13.74,0.67c-0.22,0.01,0.26,0.89,0.28,0.95c0.12,0.4,0.05,0.82,0.01,1.22
	c-0.09,1.02-0.14,2.02-0.04,3.05c0.05,0.58,0.18,1.5,0.47,1.99c0.32,0.55,0.95,0.91,1.28,1.48c0.18,0.31,0.21,0.64,0.36,0.96
	c0.17,0.36,0.53,0.72,0.64,1.09c0.11,0.34,0.08,0.69,0.21,1.04c0.58,1.62,0.98,3.11,0.42,4.8c-0.48,1.45-1.5,2.69-2.81,3.41
	c-0.78,0.43-1.65,0.67-2.53,0.72c-3.28,0.16-6.07-2.44-6.24-5.81c-0.05-1.11,0.19-2.22,0.71-3.19c0.24-0.45,0.61-0.83,0.81-1.29
	c0.18-0.43,0.34-0.88,0.53-1.31c0.3-0.69,0.4-1.5,0.73-2.17c0.45-0.91,0.77-1.82,1.08-2.79c0.26-0.81,0.1-1.36,0.06-2.19
	c-0.04-0.97,0.2-1.48-0.94-1.64c-1.21-0.18-2.55,0.05-3.78,0.11c-2.83,0.14-5.66,0.27-8.49,0.41c-0.77,0.04-3.27-0.24-3.78,0.49
	c-0.09,0.13-0.01,0.68-0.04,0.86c-0.06,0.37-0.15,0.47-0.14,0.89c0.03,1.04-0.08,2.44,0.39,3.32c0.32,0.61,0.72,1.02,1.33,1.36
	c0.97,0.54,0.84,1.2,1.24,2.13c0.46,1.06,1.37,1.79,1.68,2.88c0.93,0.08,1.14,0.43,1.18,1.38c0.01,0.35,0.05,0.7,0.05,1.06
	c0.01,1.46-0.8,3.31-1.72,4.38c-1.06,1.22-2.57,1.97-4.17,2.05c-3.28,0.16-6.07-2.44-6.24-5.81c-0.1-2.05,0.81-3.9,2.27-5.08
	c0,0-0.46-9.47-0.46-9.51c0,0-4.77,0.23-5.06,0.24c-2.72,0.13-5.44,0.27-8.16,0.4c-0.63,0.03-1.26,0.06-1.9,0.09
	c0.02,0.52-0.06,0.94-0.12,1.44c-0.09,0.78,0.14,1.7,0.36,2.44c0.14,0.46,0.35,0.88,0.45,1.35c0.2,0.92,0.49,1.94,1.22,2.54
	c0.67,0.55,1.12,1.29,1.71,1.94c1.15,1.27,1.99,2.73,2.08,4.51c0.06,1.23-0.25,2.47-0.88,3.51c-1.19,1.97-3.38,3.05-5.63,2.86
	c-0.88-0.08-1.75-0.2-2.49-0.73c-0.95-0.68-2-1.6-2.75-2.5c-0.41-0.49-1.09-0.86-1.24-1.46c0-0.25,0-0.49-0.01-0.74
	c-0.04-0.17-0.11-0.31-0.22-0.44c-0.11-0.42,0.04-0.67,0.24-1.05c0.67-1.24,1.52-2.29,2.3-3.42c0.52-0.74,0.49-1.28,0.57-2.16
	c0.1-1.09,0.35-2.04,0.27-3.16c-0.03-0.44-0.17-0.9-0.06-1.34c0.13-0.51,0.18-0.81,0.15-1.38c-0.01-0.24,0.1-1.85-0.1-2
	c0,0-5.06,0.24-5.37,0.26c-2.88,0.14-5.77,0.28-8.66,0.42c-0.67,0.03-1.34,0.07-2,0.1c0.04,1-0.13,1.93-0.09,2.92
	c0.04,0.94,0.22,1.49,0.52,2.35c0.22,0.6,0.23,1.33,0.59,1.86c0.26,0.37,0.49,0.37,0.84,0.56c0.52,0.28,1.01,0.85,1.43,1.32
	c0.31,0.34,0.47,0.84,0.83,1.13c0.42,0.34,0.75,0.28,1.1,0.78c0.68,0.95,1.07,2.1,1.12,3.27c0.16,3.37-2.37,6.23-5.65,6.39
	c-3.28,0.16-6.07-2.44-6.24-5.81c-0.05-1.11,0.2-2.18,0.7-3.15c0.48-0.94,0.57-1.88,0.64-2.95c0.03-0.51,0.18-0.9,0.17-1.42
	c-0.02-0.64,0.06-1.17,0.12-1.8c0.08-0.79-0.06-1.65-0.1-2.44c-0.04-0.93-0.09-1.87-0.14-2.81c-0.39,0.02-0.78,0.04-1.17,0.06
	c-1.14,0.06-11.6,0.24-11.6,0.83c0,0.62-0.59,1.09-0.83,1.65c-0.24,0.56-0.53,0.92-0.61,1.61c-0.15,1.23,0.09,2.45,0.26,3.66
	c0.05,0.34-0.01,1.17,0.21,1.43c0.16,0.19,0.74,0.25,0.97,0.34c0.7,0.29,1.35,0.71,1.9,1.24c1.11,1.07,1.78,2.56,1.86,4.12
	c0.16,3.37-2.37,6.23-5.65,6.39c-3.28,0.16-6.07-2.44-6.24-5.81c-0.07-1.41,0.36-2.82,1.19-3.94c0.72-0.98,2.07-1.43,2.23-2.72
	c0.06-0.51-0.06-1.14-0.09-1.65c-0.02-0.56-0.03-0.97-0.42-1.41c-0.3-0.34-0.7-0.56-1.02-0.88c-0.32-0.32-0.13-0.39-0.67-0.45
	c-1.1-0.13-2.03,0.57-3.18,0.24c-0.94-0.26-1.56-0.84-2.2-1.57c-0.85-0.95-1.56-1.36-2.82-1.51c-0.43-0.05-0.88,0.07-1.31,0.07
	c-0.44,0-0.8-0.26-1.2-0.21c-0.48,0.05-0.97,0.42-1.4,0.1c-0.75,0.75-0.88,1.8-0.84,2.83c0.05,1.4,0.04,2.93,0.48,4.27
	c0.25,0.74,0.85,1.29,1.37,1.82c0.48,0.48,0.79,1.03,1.16,1.59c0.54,0.8,1.32,1.96,1.26,2.97c-0.1,1.73-0.35,3.49-1.42,4.9
	c-1.06,1.38-2.68,2.24-4.39,2.32c-0.81,0.04-1.63-0.09-2.4-0.39c-1.35-0.53-2.43-1.54-3.14-2.83c-0.29-0.53-0.7-1.09-0.85-1.68
	c-0.08-0.34-0.11-0.8-0.02-1.14c0.1-0.4,0.43-0.52,0.47-0.94c0.08-0.18,0.15-0.31,0.18-0.52c0.07-0.56-0.07-0.95,0.21-1.51
	c0.17-0.34,0.43-0.68,0.64-1.01c0.37-0.58,0.67-1.15,1.01-1.78c0.19-0.36,0.34-0.6,0.46-0.98c0.13-0.43,0.48-0.95,0.55-1.38
	c0.15-0.94-0.44-1.78-0.95-2.45c-0.5-0.65-1.18-1.63-2-1.82c-0.72-0.17-1.67,0.15-2.37,0.26c-0.55,0.09-0.91,0.13-1.37,0.45
	c-0.43,0.3-0.57,0.82-0.97,1.11c-0.26,0.19-0.83,0.32-1.12,0.35c-0.61,0.05-1.05-0.2-1.58-0.43c-0.6-0.26-1.06-0.13-1.69-0.14
	c-0.52-0.01-0.99-0.26-1.44,0.09c-0.27,0.21-0.68,0.81-0.9,1.07c-0.53,0.62-1.13,1.42-1.17,2.26c-0.03,0.62,0.31,1.14,0.56,1.67
	c0.24,0.51,0.71,0.74,1.13,1.11c0.29,0.25,0.58,0.49,0.86,0.74c0.27,0.24,0.5,0.45,0.66,0.68c0.18,0.26,0.37,0.62,0.55,0.9
	c0.52,0.86,0.81,1.87,0.86,2.87c0.16,3.37-2.36,6.22-5.65,6.38c-0.91,0.04-1.83-0.13-2.67-0.5c-1.44-0.65-2.59-1.88-3.17-3.37
	c-0.48-1.26-0.77-3.35,0-4.5c0.09-0.13,0.17-0.47,0.25-0.62c0.07-0.13,0.16-0.24,0.24-0.41c0.18-0.38,0.24-0.83,0.39-1.21
	c0.18-0.44,0.45-0.9,0.66-1.33c0.26-0.53,0.72-0.71,1.06-1.18c0.6-0.81,0.34-2.13,0.29-3.15c-0.05-0.95-0.24-2.02-0.05-2.96
	c0.13-0.7,0.5-1.22-0.43-1.22c-2.1,0-4.23,0.2-6.33,0.31c-1.14,0.06-2.27,0.11-3.41,0.17c-0.47,0.02-2.61,0.37-2.81-0.01
	c-0.42,0.46-1.16,0.01-1.6,0.47c-0.54,0.57-0.78,1.35-0.62,2.08c0.27,1.18,0.33,2.59,0.17,3.81c-0.07,0.54-0.38,1.06-0.08,1.57
	c0.39,0.67,1.23,1.01,1.66,1.67c0.3,0.46,0.79,0.82,1.17,1.28c0.85,1.02,1.36,2.32,1.42,3.66c0.16,3.37-2.36,6.23-5.65,6.38
	c-3.28,0.16-6.07-2.44-6.24-5.81c-0.04-0.87,0.1-1.74,0.41-2.55c0.11-0.29,0.36-0.57,0.44-0.85c0.12-0.41-0.06-0.91-0.01-1.35
	c0.04-0.29,0.24-1.26,0.53-1.36c0.34-0.12,0.43,0.49,0.73,0c0.16-0.26-0.04-0.78,0.01-1.06c0.02-0.13,0.16-0.15,0.18-0.28
	c0.02-0.14-0.04-0.32-0.01-0.46c0.06-0.29,0.13-0.53,0.2-0.83c0.11-0.51,0.38-0.95,0.49-1.46c0.12-0.6,0.07-1.18,0.04-1.79
	c-0.01-0.15-0.13-2.64-0.13-2.64s-15.1,0.73-15.12,0.73c-0.02,0,0.15,2.98,0.18,3.17c0.19,1,0.67,1.91,0.82,2.93
	c0.08,0.5,0.06,1.07,0.28,1.53c0.12,0.25,0.24,0.31,0.38,0.52c0.23,0.34,0.54,0.75,0.64,1.16c0.11,0.44-0.03,0.85,0.38,1.14
	c0.41,0.29,0.65,0.3,0.97,0.8c0.58,0.9,0.92,1.96,0.97,3.04c0.16,3.37-2.37,6.23-5.65,6.38c-0.98,0.05-1.97-0.16-2.86-0.59
	c-1.43-0.71-2.59-1.96-2.93-3.56c-0.08-0.35-0.15-0.7-0.27-1.04c-0.09-0.23-0.17-0.51-0.34-0.69c-0.13-0.15-0.26-0.06-0.38-0.29
	c-0.17-0.33-0.1-1.11-0.19-1.52c-0.08-0.37-0.22-0.82,0.06-1.14c0.21-0.24,0.4-0.04,0.65-0.21c0.23-0.16,0.54-1.19,0.64-1.38
	c0.29-0.48,0.57-0.96,0.84-1.46c0.13-0.32,0.28-0.63,0.45-0.92c0.29-0.18,0.56-0.04,0.87-0.14c0.11-0.91,0.34-1.65,0.2-2.59
	c-0.14-0.93-0.14-1.85-0.2-2.79c-0.03-0.47-0.12-0.85,0.08-1.28c0.07-0.13,0.53-0.59,0.49-0.74c-0.14-0.45-4.47,0.09-5.1,0.12
	c-2.64,0.13-5.27,0.26-7.91,0.38c-0.62,0.03-1.24,0.07-1.86,0.09c0.05,0.46-0.21,0.88-0.17,1.35c0.09,1.2,0.41,2.44,0.61,3.62
	c0.19,1.12,0.81,2.14,0.88,3.2c0.02,0.35,0.02,0.71,0.05,1.06c0.04,0.5,0.14,0.45,0.45,0.8c0.52,0.58,0.8,1.28,1.26,1.83
	c0.57,0.7,0.8,1.49,0.84,2.45c0.16,3.37-2.36,6.23-5.65,6.38c-3.28,0.16-6.07-2.44-6.24-5.81c-0.07-1.57,0.45-3.12,1.46-4.3
	c0.79-0.92,2.04-1.4,2.34-2.67c0.19-0.83,0.01-1.63,0.1-2.45c0.07-0.67,0.14-1.25,0.11-1.94c-0.05-1.11-0.11-2.22-0.16-3.32
	c0,0-1.73,0.08-1.83,0.09c-2.77,0.13-5.54,0.27-8.31,0.4l-3.87,0.19c-0.5,0.02-1.03,0-1.52,0.07c-1.03,0.15-0.93,1.42-1.06,2.27
	c-0.08,0.5,0.02,1.05,0.17,1.53c0.18,0.55,0.17,1.11,0.31,1.68c0.23,0.94-0.09,2.33,0.7,2.98c0.47,0.39,1.13,0.41,1.57,0.85
	c0.3,0.31,0.46,0.71,0.71,1.05c0.28,0.38,0.6,0.71,0.84,1.12c0.5,0.85,0.79,1.82,0.83,2.82c0.16,3.37-2.37,6.23-5.65,6.38
	c-3.28,0.16-6.07-2.44-6.24-5.81c-0.08-1.58,0.38-3.09,1.56-4.11c0.51-0.45,0.97-0.95,1.48-1.39c0.48-0.4,1.18-0.86,1.19-1.58
	c0-0.22-0.16-0.23-0.19-0.36c-0.07-0.27-0.08-0.51-0.09-0.8c-0.02-0.63,0.07-1.35-0.23-1.92c-0.42-0.78-0.92-1.3-1.14-2.19
	c-0.14-0.59-0.28-1.16-0.8-1.53c-0.68,0.57-1.12-0.17-1.8-0.37c-0.37-0.11-0.75,0.08-1.12-0.01c-0.43-0.1-0.38-0.17-0.82-0.06
	c-0.51,0.13-0.55,0.07-1.04-0.13c-0.38-0.16-0.63-0.14-1.04-0.12c-0.34,0.02-0.71-0.02-1.04,0.04c-0.48,0.08-0.78,0.42-1.25,0.56
	c-0.22-0.05-0.71-0.08-1.02-0.15c-0.73-0.17-0.77,0.35-1.1,0.94c-0.7,1.26-1.36,2.3-1.2,3.83c0.08,0.71,0.3,1.32,0.34,2.06
	c0.04,0.91,0.1,1.83,0.13,2.74c0.03,0.66,0.1,1.35,0.49,1.9c0.29,0.42,0.76,0.68,0.96,1.17c0.28,0.7,0.15,1.81,0.1,2.54
	c-0.06,0.99-0.37,1.95-0.87,2.79c-1.02,1.69-2.83,2.78-4.77,2.88c-3.28,0.16-6.07-2.44-6.24-5.81c-0.09-1.8,0.63-3.56,1.92-4.77
	c0.32-0.3,0.68-0.58,1.07-0.79c0.34-0.19,0.67-0.14,1-0.27c0.7-0.29,0.68-1.48,0.76-2.14c0.12-1.05,0.34-2.1,0.43-3.17
	c0.04-0.4,0.1-0.7,0.17-1.09c0.1-0.52-0.04-0.67-0.18-1.12c-0.34-1.07-0.29-1.41-1.47-1.33c-0.51,0.04-1.03,0.05-1.54,0.08
	c-1.41,0.07-2.82,0.14-4.22,0.21c-2.88,0.14-5.76,0.28-8.64,0.42c-0.1,0-1.88,0.09-1.88,0.09l0.42,8.65
	c2.5,0.63,4.42,2.85,4.55,5.62c0.16,3.37-2.36,6.23-5.65,6.38c-1.3,0.06-2.85-0.32-3.92-1.13c-0.22-0.17-0.42-0.37-0.63-0.55
	c-0.14-0.12-0.26-0.29-0.42-0.38c-0.12-0.07-0.4-0.1-0.48-0.16c-0.46-0.4-0.52-1.48-0.73-2.04c-0.09-0.24-0.21-0.19-0.15-0.5
	c0.04-0.23,0.28-0.52,0.38-0.73c0.27-0.52,0.19-1.01,0.15-1.6c-0.02-0.42-0.1-0.8,0.04-1.22c0.11-0.33,0.4-1.29,0.69-1.45
	c0.43,0.84,1.28-0.91,1.44-1.15c0.25-0.4,0.45-0.57,0.56-1.07c0.11-0.54,0.2-1.07,0.19-1.62c-0.01-0.56-0.15-0.69-0.36-1.14
	c-0.27-0.58-0.23-1.15-0.25-1.83c-0.04-1.07-0.18-1.87-0.58-2.86c-0.32-0.8-0.48-0.96-1.31-0.91c-0.57,0.03-1.14,0.05-1.7,0.08
	c-2.47,0.12-4.93,0.24-7.4,0.36c-1.36,0.07-2.72,0.13-4.09,0.2c0.04,0.78,0.3,1.51,0.34,2.31c0.02,0.39-0.03,0.87,0.05,1.25
	c0.09,0.4,0.26,0.68,0.3,1.09c0.06,0.63,0.01,1.28,0.05,1.91c0.04,0.66,0.09,1.39,0.38,1.99c0.31,0.64,0.79,0.83,1.32,1.23
	c1.37,1.02,2.2,2.77,2.28,4.48c0.16,3.37-2.36,6.23-5.65,6.38c-3.28,0.16-6.07-2.44-6.24-5.81c-0.1-1.98,0.79-4,2.37-5.17
	c0.69-0.51,1.27-0.26,1.33-1.29c0.05-0.81-0.08-1.64-0.2-2.44c-0.1-0.67-0.2-1.35-0.39-2c-0.22-0.76-0.03-1.61-0.27-2.35
	c-0.53-1.57-2.24-1.29-3.46-1.23c-1.85,0.09-3.69,0.18-5.54,0.27c-1.29,0.06-2.57,0.12-3.85,0.19c-0.51,0.02-1.09-0.02-1.59,0.08
	c-0.53,0.11-1.45,0.78-1.57,1.34c-0.06,0.3,0.12,0.63,0.04,0.93c-0.07,0.26-0.33,0.44-0.39,0.74c-0.25,1.16,0.22,2.67,0.45,3.78
	c0.16,0.76,0.48,1.55,1.18,1.94c0.71,0.4,1.43,0.6,2.08,1.14c1.3,1.09,2.11,2.72,2.19,4.43c0.16,3.37-2.37,6.23-5.65,6.38
	c-3.28,0.16-6.07-2.44-6.24-5.81C39.57,56.8,40,54.96,41.07,54c0.39-0.36,0.94-0.42,1.22-0.89c0.37-0.62,0.4-1.64,0.04-2.26
	c-0.14-0.24-0.33-0.17-0.45-0.43c-0.08-0.18-0.11-0.5-0.2-0.71c-0.14-0.33-0.53-0.9-0.54-1.24c0-0.14,0.15-0.31,0.18-0.49
	c0.04-0.26-0.03-0.59-0.1-0.83c-0.15-0.5-0.22-0.86-0.25-1.4c-0.02-0.41,0.08-0.95-0.22-1.24c-0.15-0.14-0.36-0.07-0.49-0.19
	c-0.15-0.14-0.13-0.48-0.28-0.59c-0.18-0.12-0.57-0.02-0.78-0.01c-0.7,0.03-1.4,0.07-2.1,0.1c-1.34,0.06-2.68,0.13-4.02,0.19
	c-1.14,0.06-2.28,0.11-3.43,0.17c-0.48,0.02-0.94,0.02-1.42,0.01c-1-0.01-1.16,0.58-1.31,1.47c-0.04,0.22-0.28,0.6-0.32,0.83
	c-0.06,0.37-0.02,0.74,0,1.12c0.05,0.91,0.03,1.86,0.15,2.77c0.08,0.59,0.31,1.18,0.55,1.71c0.22,0.49,0.52,1.13,1,1.42
	c0.27,0.16,0.44,0.05,0.7,0.11c0.35,0.08,0.68,0.39,0.95,0.63c1.23,1.09,1.99,2.66,2.07,4.32c0.16,3.37-2.36,6.23-5.65,6.39
	c-3.28,0.16-6.07-2.44-6.24-5.81c-0.08-1.76,0.6-3.5,1.85-4.7c0.46-0.45,1.33-0.71,1.62-1.26c0.42-0.77,0.17-2.1,0.13-2.94
	c-0.03-0.72-0.05-1.34,0.08-2.02c0.12-0.6,0.02-1.21-0.09-1.8c-0.08-0.45-0.08-1.12-0.29-1.53c-0.29-0.55-0.9-0.37-1.43-0.35
	c-2.46,0.12-4.92,0.24-7.39,0.36c-1.55,0.07-3.09,0.15-4.64,0.22l33.03,694.54l533-25.82L542.99,19.32z"/>
</svg>
